<mxfile host="app.diagrams.net" modified="2023-05-02T15:34:18.717Z" agent="Mozilla/5.0 (X11; Linux x86_64; rv:109.0) Gecko/20100101 Firefox/111.0" etag="GFOioBSrVrImx_X4jmnO" version="21.2.1" type="device">
  <diagram name="Page-1" id="se-mZM-P-dYcJ-bOTXJG">
    <mxGraphModel dx="1118" dy="667" grid="1" gridSize="10" guides="1" tooltips="1" connect="1" arrows="1" fold="1" page="1" pageScale="1" pageWidth="850" pageHeight="1100" math="0" shadow="0">
      <root>
        <mxCell id="0" />
        <mxCell id="1" parent="0" />
        <mxCell id="uJuflUu3NpFNtldO-uha-3" value="Joiner by date" style="ellipse;shape=umlControl;whiteSpace=wrap;html=1;" vertex="1" parent="1">
          <mxGeometry x="170" y="30" width="100" height="100" as="geometry" />
        </mxCell>
        <mxCell id="uJuflUu3NpFNtldO-uha-6" value="" style="edgeStyle=orthogonalEdgeStyle;rounded=0;orthogonalLoop=1;jettySize=auto;html=1;dashed=1;endArrow=none;endFill=0;dashPattern=12 12;" edge="1" parent="1" source="uJuflUu3NpFNtldO-uha-3" target="uJuflUu3NpFNtldO-uha-5">
          <mxGeometry relative="1" as="geometry">
            <mxPoint x="220" y="536" as="targetPoint" />
            <mxPoint x="220" y="160" as="sourcePoint" />
          </mxGeometry>
        </mxCell>
        <mxCell id="uJuflUu3NpFNtldO-uha-5" value="" style="rounded=0;whiteSpace=wrap;html=1;rotation=-90;" vertex="1" parent="1">
          <mxGeometry x="49.37" y="358.13" width="341.25" height="20" as="geometry" />
        </mxCell>
        <mxCell id="uJuflUu3NpFNtldO-uha-7" value="" style="endArrow=classic;html=1;rounded=0;" edge="1" parent="1">
          <mxGeometry width="50" height="50" relative="1" as="geometry">
            <mxPoint x="140" y="200" as="sourcePoint" />
            <mxPoint x="210" y="200" as="targetPoint" />
          </mxGeometry>
        </mxCell>
        <mxCell id="uJuflUu3NpFNtldO-uha-8" value="Recv. trip data" style="text;html=1;strokeColor=none;fillColor=none;align=center;verticalAlign=middle;whiteSpace=wrap;rounded=0;" vertex="1" parent="1">
          <mxGeometry x="130" y="170" width="60" height="30" as="geometry" />
        </mxCell>
        <mxCell id="uJuflUu3NpFNtldO-uha-12" value="" style="rounded=0;whiteSpace=wrap;html=1;rotation=-90;" vertex="1" parent="1">
          <mxGeometry x="140" y="300" width="180" height="20" as="geometry" />
        </mxCell>
        <mxCell id="uJuflUu3NpFNtldO-uha-15" value="" style="endArrow=none;html=1;rounded=0;" edge="1" parent="1">
          <mxGeometry width="50" height="50" relative="1" as="geometry">
            <mxPoint x="240" y="240" as="sourcePoint" />
            <mxPoint x="320" y="240" as="targetPoint" />
          </mxGeometry>
        </mxCell>
        <mxCell id="uJuflUu3NpFNtldO-uha-16" value="" style="endArrow=none;html=1;rounded=0;" edge="1" parent="1">
          <mxGeometry width="50" height="50" relative="1" as="geometry">
            <mxPoint x="320" y="280" as="sourcePoint" />
            <mxPoint x="320" y="240" as="targetPoint" />
          </mxGeometry>
        </mxCell>
        <mxCell id="uJuflUu3NpFNtldO-uha-17" value="" style="endArrow=classic;html=1;rounded=0;endFill=1;" edge="1" parent="1">
          <mxGeometry width="50" height="50" relative="1" as="geometry">
            <mxPoint x="320" y="280" as="sourcePoint" />
            <mxPoint x="240" y="280" as="targetPoint" />
          </mxGeometry>
        </mxCell>
        <mxCell id="uJuflUu3NpFNtldO-uha-18" value="join(trip)" style="text;html=1;strokeColor=none;fillColor=none;align=center;verticalAlign=middle;whiteSpace=wrap;rounded=0;" vertex="1" parent="1">
          <mxGeometry x="250" y="210" width="60" height="30" as="geometry" />
        </mxCell>
        <mxCell id="uJuflUu3NpFNtldO-uha-21" value="" style="edgeStyle=orthogonalEdgeStyle;rounded=0;orthogonalLoop=1;jettySize=auto;html=1;dashed=1;dashPattern=12 12;endArrow=none;endFill=0;" edge="1" parent="1" source="uJuflUu3NpFNtldO-uha-19" target="uJuflUu3NpFNtldO-uha-20">
          <mxGeometry relative="1" as="geometry" />
        </mxCell>
        <mxCell id="uJuflUu3NpFNtldO-uha-19" value="Aggregate by duration" style="ellipse;shape=umlControl;whiteSpace=wrap;html=1;" vertex="1" parent="1">
          <mxGeometry x="530" y="30" width="100" height="100" as="geometry" />
        </mxCell>
        <mxCell id="uJuflUu3NpFNtldO-uha-20" value="" style="rounded=0;whiteSpace=wrap;html=1;rotation=-90;" vertex="1" parent="1">
          <mxGeometry x="409.37" y="358.12" width="341.25" height="20" as="geometry" />
        </mxCell>
        <mxCell id="uJuflUu3NpFNtldO-uha-22" value="" style="rounded=0;whiteSpace=wrap;html=1;rotation=-90;" vertex="1" parent="1">
          <mxGeometry x="500" y="410" width="180" height="20" as="geometry" />
        </mxCell>
        <mxCell id="uJuflUu3NpFNtldO-uha-25" value="" style="endArrow=classic;html=1;rounded=0;exitX=0.226;exitY=1;exitDx=0;exitDy=0;exitPerimeter=0;" edge="1" parent="1" source="uJuflUu3NpFNtldO-uha-12">
          <mxGeometry width="50" height="50" relative="1" as="geometry">
            <mxPoint x="490" y="360" as="sourcePoint" />
            <mxPoint x="580" y="360" as="targetPoint" />
          </mxGeometry>
        </mxCell>
        <mxCell id="uJuflUu3NpFNtldO-uha-26" value="send(hash(join_data))" style="text;html=1;strokeColor=none;fillColor=none;align=center;verticalAlign=middle;whiteSpace=wrap;rounded=0;" vertex="1" parent="1">
          <mxGeometry x="280" y="330" width="60" height="30" as="geometry" />
        </mxCell>
        <mxCell id="uJuflUu3NpFNtldO-uha-27" value="" style="endArrow=none;html=1;rounded=0;" edge="1" parent="1">
          <mxGeometry width="50" height="50" relative="1" as="geometry">
            <mxPoint x="600" y="360" as="sourcePoint" />
            <mxPoint x="680" y="360" as="targetPoint" />
          </mxGeometry>
        </mxCell>
        <mxCell id="uJuflUu3NpFNtldO-uha-28" value="" style="endArrow=none;html=1;rounded=0;" edge="1" parent="1">
          <mxGeometry width="50" height="50" relative="1" as="geometry">
            <mxPoint x="680" y="400" as="sourcePoint" />
            <mxPoint x="680" y="360" as="targetPoint" />
          </mxGeometry>
        </mxCell>
        <mxCell id="uJuflUu3NpFNtldO-uha-29" value="" style="endArrow=classic;html=1;rounded=0;endFill=1;" edge="1" parent="1">
          <mxGeometry width="50" height="50" relative="1" as="geometry">
            <mxPoint x="680" y="400" as="sourcePoint" />
            <mxPoint x="599" y="400" as="targetPoint" />
          </mxGeometry>
        </mxCell>
        <mxCell id="uJuflUu3NpFNtldO-uha-30" value="aggregate(key=trip.date, value=trip.duration)" style="text;html=1;strokeColor=none;fillColor=none;align=center;verticalAlign=middle;whiteSpace=wrap;rounded=0;" vertex="1" parent="1">
          <mxGeometry x="600" y="320" width="260" height="40" as="geometry" />
        </mxCell>
        <mxCell id="uJuflUu3NpFNtldO-uha-31" value="While not end of stream" style="shape=umlFrame;whiteSpace=wrap;html=1;pointerEvents=0;width=60;height=50;" vertex="1" parent="1">
          <mxGeometry x="70" y="160" width="790" height="420" as="geometry" />
        </mxCell>
      </root>
    </mxGraphModel>
  </diagram>
</mxfile>
